<svg xmlns="http://www.w3.org/2000/svg" viewBox="0 0 160 160"><circle cx="78" cy="64" r="34" fill="#FFD9C2"/><path d="M44 60c2-24 20-40 40-40 26 0 42 20 38 44-12-6-20-16-24-23-13 13-27 19-54 19z" fill="#7C4E2F"/><path d="M49 112c8-20 24-30 43-30 18 0 34 10 42 30" fill="#67D48E"/><path d="M80 68c3 5 10 5 13 0" stroke="#3D2B1F" stroke-width="4" fill="none" stroke-linecap="round"/><circle cx="66" cy="58" r="3" fill="#3D2B1F"/><circle cx="91" cy="58" r="3" fill="#3D2B1F"/><path d="M118 32c15 8 23 20 24 36-15 0-27-5-36-14z" fill="#ffffff" stroke="#4E7FFB" stroke-width="4"/><text x="124" y="58" font-size="15" font-family="Arial" font-weight="700" fill="#4E7FFB">Làm xong</text><text x="132" y="74" font-size="15" font-family="Arial" font-weight="700" fill="#4E7FFB">rồi nè!</text></svg>