<svg xmlns="http://www.w3.org/2000/svg" viewBox="0 0 680 486" width="680" height="486" font-family="Arial, Helvetica, sans-serif" font-size="14">
<rect width="680" height="486" fill="#fff"/>
<g transform="translate(0,0)">
<rect width="680" height="160" fill="#fff"/>
<defs><marker id="mt" markerUnits="userSpaceOnUse" markerWidth="10" markerHeight="8" refX="9" refY="4" orient="auto"><path d="M0,0 L10,4 L0,8 z" fill="#b45309"/></marker></defs>
<text x="40" y="20" font-style="italic" fill="#334155">Đi ngược chiều: sau 2 giờ gặp nhau</text>
<line x1="40" y1="76" x2="640" y2="76" stroke="#0f172a" stroke-width="2"/>
<line x1="40" y1="70" x2="40" y2="82" stroke="#0f172a" stroke-width="2"/>
<circle cx="40" cy="76" r="3" fill="#0f172a"/>
<text x="40" y="98" text-anchor="middle" font-weight="bold" fill="#0f172a">A</text>
<line x1="415" y1="70" x2="415" y2="82" stroke="#0f172a" stroke-width="2"/>
<circle cx="415" cy="76" r="3" fill="#0f172a"/>
<text x="415" y="98" text-anchor="middle" font-weight="bold" fill="#0f172a">C</text>
<text x="415" y="112" text-anchor="middle" font-size="11" fill="#475569">(gặp nhau)</text>
<line x1="640" y1="70" x2="640" y2="82" stroke="#0f172a" stroke-width="2"/>
<circle cx="640" cy="76" r="3" fill="#0f172a"/>
<text x="640" y="98" text-anchor="middle" font-weight="bold" fill="#0f172a">B</text>
<line x1="40" y1="60" x2="415" y2="60" stroke="#b45309" stroke-width="2" marker-end="url(#mt)"/>
<line x1="40" y1="56" x2="40" y2="64" stroke="#b45309" stroke-width="2"/>
<text x="227.5" y="54" text-anchor="middle" font-size="12" fill="#b45309">Xe máy</text>
<line x1="640" y1="60" x2="415" y2="60" stroke="#b45309" stroke-width="2" marker-end="url(#mt)"/>
<line x1="640" y1="56" x2="640" y2="64" stroke="#b45309" stroke-width="2"/>
<text x="527.5" y="54" text-anchor="middle" font-size="12" fill="#b45309">Xe đạp</text>
<line x1="40" y1="126" x2="640" y2="126" stroke="#0f172a" stroke-width="1"/>
<line x1="40" y1="122" x2="40" y2="130" stroke="#0f172a" stroke-width="1"/>
<line x1="640" y1="122" x2="640" y2="130" stroke="#0f172a" stroke-width="1"/>
<text x="340" y="141" text-anchor="middle" font-size="12" fill="#0f172a">80 km</text>

</g>
<g transform="translate(0,172)">
<rect width="680" height="190" fill="#fff"/>
<defs><marker id="mt" markerUnits="userSpaceOnUse" markerWidth="10" markerHeight="8" refX="9" refY="4" orient="auto"><path d="M0,0 L10,4 L0,8 z" fill="#b45309"/></marker></defs>
<text x="40" y="20" font-style="italic" fill="#334155">Đi cùng chiều: sau 8 giờ xe máy đuổi kịp</text>
<line x1="40" y1="106" x2="640" y2="106" stroke="#0f172a" stroke-width="2"/>
<line x1="40" y1="100" x2="40" y2="112" stroke="#0f172a" stroke-width="2"/>
<circle cx="40" cy="106" r="3" fill="#0f172a"/>
<text x="40" y="128" text-anchor="middle" font-weight="bold" fill="#0f172a">A</text>
<line x1="280" y1="100" x2="280" y2="112" stroke="#0f172a" stroke-width="2"/>
<circle cx="280" cy="106" r="3" fill="#0f172a"/>
<text x="280" y="128" text-anchor="middle" font-weight="bold" fill="#0f172a">B</text>
<line x1="640" y1="100" x2="640" y2="112" stroke="#0f172a" stroke-width="2"/>
<circle cx="640" cy="106" r="3" fill="#0f172a"/>
<text x="640" y="128" text-anchor="middle" font-weight="bold" fill="#0f172a">D</text>
<text x="640" y="142" text-anchor="end" font-size="11" fill="#475569">(đuổi kịp)</text>
<line x1="40" y1="90" x2="640" y2="90" stroke="#b45309" stroke-width="2" marker-end="url(#mt)"/>
<line x1="40" y1="86" x2="40" y2="94" stroke="#b45309" stroke-width="2"/>
<text x="340" y="84" text-anchor="middle" font-size="12" fill="#b45309">Xe máy</text>
<line x1="280" y1="60" x2="640" y2="60" stroke="#b45309" stroke-width="2" marker-end="url(#mt)"/>
<line x1="280" y1="56" x2="280" y2="64" stroke="#b45309" stroke-width="2"/>
<text x="460" y="54" text-anchor="middle" font-size="12" fill="#b45309">Xe đạp</text>
<line x1="40" y1="156" x2="280" y2="156" stroke="#0f172a" stroke-width="1"/>
<line x1="40" y1="152" x2="40" y2="160" stroke="#0f172a" stroke-width="1"/>
<line x1="280" y1="152" x2="280" y2="160" stroke="#0f172a" stroke-width="1"/>
<text x="160" y="171" text-anchor="middle" font-size="12" fill="#0f172a">80 km</text>

</g>
<g transform="translate(0,374)">
<rect width="557" height="112" fill="#fff"/>
<text x="124" y="37" text-anchor="end" fill="#0f172a">Vận tốc xe đạp:</text>
<line x1="134" y1="32" x2="314" y2="32" stroke="#0f172a" stroke-width="2"/>
<line x1="134" y1="25" x2="134" y2="39" stroke="#0f172a" stroke-width="2"/>
<line x1="314" y1="25" x2="314" y2="39" stroke="#0f172a" stroke-width="2"/>
<text x="224" y="52" text-anchor="middle" fill="#dc2626">?</text>
<text x="124" y="81" text-anchor="end" fill="#0f172a">Vận tốc xe máy:</text>
<line x1="134" y1="76" x2="314" y2="76" stroke="#0f172a" stroke-width="2"/>
<line x1="134" y1="69" x2="134" y2="83" stroke="#0f172a" stroke-width="2"/>
<line x1="314" y1="69" x2="314" y2="83" stroke="#0f172a" stroke-width="2"/>
<line x1="314" y1="76" x2="434" y2="76" stroke="#0f172a" stroke-width="2"/>
<line x1="434" y1="69" x2="434" y2="83" stroke="#0f172a" stroke-width="2"/>
<text x="374" y="66" text-anchor="middle" font-size="12" fill="#b45309">10 km/giờ</text>
<text x="284" y="96" text-anchor="middle" fill="#dc2626">?</text>
<path d="M448,24 q8,0 8,8 L456,46 q0,8 8,8 q-8,0 -8,8 L456,76 q0,8 -8,8" fill="none" stroke="#0f172a" stroke-width="1.5"/>
<text x="470" y="59" fill="#0f172a">40 km/giờ</text>

</g>
</svg>