<svg xmlns="http://www.w3.org/2000/svg" viewBox="0 0 680 190" width="680" height="190" font-family="Arial, Helvetica, sans-serif" font-size="14">
<rect width="680" height="190" fill="#fff"/>
<defs><marker id="mt" markerUnits="userSpaceOnUse" markerWidth="10" markerHeight="8" refX="9" refY="4" orient="auto"><path d="M0,0 L10,4 L0,8 z" fill="#b45309"/></marker></defs>
<text x="40" y="20" font-style="italic" fill="#334155">Trải đường chạy vòng thành đoạn thẳng</text>
<line x1="40" y1="106" x2="640" y2="106" stroke="#0f172a" stroke-width="2"/>
<line x1="40" y1="100" x2="40" y2="112" stroke="#0f172a" stroke-width="2"/>
<circle cx="40" cy="106" r="3" fill="#0f172a"/>
<text x="40" y="128" text-anchor="middle" font-weight="bold" fill="#0f172a">Xuất phát</text>
<line x1="490" y1="100" x2="490" y2="112" stroke="#0f172a" stroke-width="2"/>
<circle cx="490" cy="106" r="3" fill="#0f172a"/>
<text x="490" y="128" text-anchor="middle" font-weight="bold" fill="#0f172a">Nam</text>
<text x="490" y="142" text-anchor="middle" font-size="11" fill="#475569">(chạy 3 vòng)</text>
<line x1="640" y1="100" x2="640" y2="112" stroke="#0f172a" stroke-width="2"/>
<circle cx="640" cy="106" r="3" fill="#0f172a"/>
<text x="640" y="128" text-anchor="middle" font-weight="bold" fill="#0f172a">Bình</text>
<text x="640" y="142" text-anchor="end" font-size="11" fill="#475569">(chạy 4 vòng)</text>
<line x1="40" y1="90" x2="490" y2="90" stroke="#b45309" stroke-width="2" marker-end="url(#mt)"/>
<line x1="40" y1="86" x2="40" y2="94" stroke="#b45309" stroke-width="2"/>
<text x="265" y="84" text-anchor="middle" font-size="12" fill="#b45309">Nam: 6 m/giây</text>
<line x1="40" y1="60" x2="640" y2="60" stroke="#b45309" stroke-width="2" marker-end="url(#mt)"/>
<line x1="40" y1="56" x2="40" y2="64" stroke="#b45309" stroke-width="2"/>
<text x="340" y="54" text-anchor="middle" font-size="12" fill="#b45309">Bình: 8 m/giây</text>
<line x1="40" y1="156" x2="190" y2="156" stroke="#0f172a" stroke-width="1"/>
<line x1="40" y1="152" x2="40" y2="160" stroke="#0f172a" stroke-width="1"/>
<line x1="190" y1="152" x2="190" y2="160" stroke="#0f172a" stroke-width="1"/>
<text x="115" y="171" text-anchor="middle" font-size="12" fill="#0f172a">1256 m (một vòng)</text>
<line x1="490" y1="156" x2="640" y2="156" stroke="#0f172a" stroke-width="1"/>
<line x1="490" y1="152" x2="490" y2="160" stroke="#0f172a" stroke-width="1"/>
<line x1="640" y1="152" x2="640" y2="160" stroke="#0f172a" stroke-width="1"/>
<text x="565" y="171" text-anchor="middle" font-size="12" fill="#0f172a">1256 m (Bình hơn Nam một vòng)</text>
</svg>