<svg xmlns="http://www.w3.org/2000/svg" viewBox="0 0 497 194" width="497" height="194" font-family="Arial, Helvetica, sans-serif" font-size="14">
<rect width="497" height="194" fill="#fff"/>
<text x="117" y="37" text-anchor="end" fill="#0f172a">Ngăn thứ nhất:</text>
<line x1="127" y1="32" x2="295" y2="32" stroke="#0f172a" stroke-width="2"/>
<line x1="127" y1="25" x2="127" y2="39" stroke="#0f172a" stroke-width="2"/>
<line x1="183" y1="25" x2="183" y2="39" stroke="#0f172a" stroke-width="2"/>
<line x1="239" y1="25" x2="239" y2="39" stroke="#0f172a" stroke-width="2"/>
<line x1="295" y1="25" x2="295" y2="39" stroke="#0f172a" stroke-width="2"/>
<text x="211" y="52" text-anchor="middle" fill="#dc2626">?</text>
<text x="117" y="81" text-anchor="end" fill="#0f172a">Ngăn thứ ba:</text>
<line x1="127" y1="76" x2="463" y2="76" stroke="#0f172a" stroke-width="2"/>
<line x1="127" y1="69" x2="127" y2="83" stroke="#0f172a" stroke-width="2"/>
<line x1="183" y1="69" x2="183" y2="83" stroke="#0f172a" stroke-width="2"/>
<line x1="239" y1="69" x2="239" y2="83" stroke="#0f172a" stroke-width="2"/>
<line x1="295" y1="69" x2="295" y2="83" stroke="#0f172a" stroke-width="2"/>
<line x1="351" y1="69" x2="351" y2="83" stroke="#0f172a" stroke-width="2"/>
<line x1="407" y1="69" x2="407" y2="83" stroke="#0f172a" stroke-width="2"/>
<line x1="463" y1="69" x2="463" y2="83" stroke="#0f172a" stroke-width="2"/>
<text x="295" y="96" text-anchor="middle" fill="#dc2626">?</text>
<text x="117" y="125" text-anchor="end" fill="#0f172a">Ngăn thứ hai:</text>
<line x1="127" y1="120" x2="351" y2="120" stroke="#0f172a" stroke-width="2"/>
<line x1="127" y1="113" x2="127" y2="127" stroke="#0f172a" stroke-width="2"/>
<line x1="183" y1="113" x2="183" y2="127" stroke="#0f172a" stroke-width="2"/>
<line x1="239" y1="113" x2="239" y2="127" stroke="#0f172a" stroke-width="2"/>
<line x1="295" y1="113" x2="295" y2="127" stroke="#0f172a" stroke-width="2"/>
<line x1="351" y1="113" x2="351" y2="127" stroke="#0f172a" stroke-width="2"/>
<text x="239" y="140" text-anchor="middle" fill="#dc2626">?</text>
<line x1="295" y1="154" x2="463" y2="154" stroke="#0f172a" stroke-width="1"/>
<line x1="295" y1="150" x2="295" y2="158" stroke="#0f172a" stroke-width="1"/>
<line x1="463" y1="150" x2="463" y2="158" stroke="#0f172a" stroke-width="1"/>
<text x="379" y="170" text-anchor="middle" font-size="12" fill="#0f172a">30 quyển</text>
</svg>