<svg xmlns="http://www.w3.org/2000/svg" viewBox="0 0 680 206" width="680" height="206" font-family="Arial, Helvetica, sans-serif" font-size="14">
<rect width="680" height="206" fill="#fff"/>
<defs><marker id="mt" markerUnits="userSpaceOnUse" markerWidth="10" markerHeight="8" refX="9" refY="4" orient="auto"><path d="M0,0 L10,4 L0,8 z" fill="#b45309"/></marker></defs>
<text x="40" y="20" font-style="italic" fill="#334155">Ô tô và xe máy cùng rời Hà Nội</text>
<line x1="40" y1="106" x2="640" y2="106" stroke="#0f172a" stroke-width="2"/>
<line x1="40" y1="100" x2="40" y2="112" stroke="#0f172a" stroke-width="2"/>
<circle cx="40" cy="106" r="3" fill="#0f172a"/>
<text x="40" y="128" text-anchor="middle" font-weight="bold" fill="#0f172a">Hà Nội</text>
<line x1="440" y1="100" x2="440" y2="112" stroke="#0f172a" stroke-width="2"/>
<circle cx="440" cy="106" r="3" fill="#0f172a"/>
<text x="440" y="128" text-anchor="middle" font-weight="bold" fill="#0f172a">Xe máy</text>
<line x1="640" y1="100" x2="640" y2="112" stroke="#0f172a" stroke-width="2"/>
<circle cx="640" cy="106" r="3" fill="#0f172a"/>
<text x="640" y="128" text-anchor="middle" font-weight="bold" fill="#0f172a">Ninh Bình</text>
<line x1="40" y1="90" x2="640" y2="90" stroke="#b45309" stroke-width="2" marker-end="url(#mt)"/>
<line x1="40" y1="86" x2="40" y2="94" stroke="#b45309" stroke-width="2"/>
<text x="340" y="84" text-anchor="middle" font-size="12" fill="#b45309">Ô tô: 48 km/giờ</text>
<line x1="40" y1="60" x2="440" y2="60" stroke="#b45309" stroke-width="2" marker-end="url(#mt)"/>
<line x1="40" y1="56" x2="40" y2="64" stroke="#b45309" stroke-width="2"/>
<text x="240" y="54" text-anchor="middle" font-size="12" fill="#b45309">Xe máy: 32 km/giờ</text>
<line x1="40" y1="142" x2="640" y2="142" stroke="#0f172a" stroke-width="1"/>
<line x1="40" y1="138" x2="40" y2="146" stroke="#0f172a" stroke-width="1"/>
<line x1="640" y1="138" x2="640" y2="146" stroke="#0f172a" stroke-width="1"/>
<text x="340" y="157" text-anchor="middle" font-size="12" fill="#0f172a">96 km</text>
<line x1="40" y1="172" x2="440" y2="172" stroke="#0f172a" stroke-width="1"/>
<line x1="40" y1="168" x2="40" y2="176" stroke="#0f172a" stroke-width="1"/>
<line x1="440" y1="168" x2="440" y2="176" stroke="#0f172a" stroke-width="1"/>
<text x="240" y="187" text-anchor="middle" font-size="12" fill="#dc2626">? km</text>
</svg>